<svg width="1200" height="900" viewBox="0 0 1200 900" fill="none" xmlns="http://www.w3.org/2000/svg">
  <rect width="1200" height="900" rx="48" fill="#451A03"/>
  <rect width="1200" height="900" fill="url(#bg)"/>
  <circle cx="919" cy="171" r="188" fill="#FFFBEB" fill-opacity="0.08"/>
  <circle cx="231" cy="709" r="229" fill="#FDE68A" fill-opacity="0.22"/>
  <path d="M250 646C287 564 360 487 463 442C604 381 717 414 880 287" stroke="#FFFBEB" stroke-opacity="0.7" stroke-width="14" stroke-linecap="round"/>
  <path d="M363 214C395 214 421 240 421 272V521C421 553 395 579 363 579H311C279 579 253 553 253 521V272C253 240 279 214 311 214H363Z" fill="#FFFBEB" fill-opacity="0.9"/>
  <rect x="305" y="268" width="64" height="12" rx="6" fill="#78350F"/>
  <rect x="305" y="308" width="64" height="12" rx="6" fill="#B45309"/>
  <rect x="305" y="348" width="64" height="12" rx="6" fill="#D97706"/>
  <path d="M713 250C785 250 843 308 843 380V416L913 594H845L799 489H712L666 594H598L668 416V380C668 308 726 250 798 250H713Z" fill="#FFFBEB" fill-opacity="0.17"/>
  <path d="M740 332L848 586" stroke="#FFFBEB" stroke-width="20" stroke-linecap="round"/>
  <path d="M894 265L652 587" stroke="#FCD34D" stroke-width="20" stroke-linecap="round"/>
  <defs>
    <linearGradient id="bg" x1="144" y1="73" x2="1038" y2="808" gradientUnits="userSpaceOnUse">
      <stop stop-color="#451A03"/>
      <stop offset="0.48" stop-color="#B45309"/>
      <stop offset="1" stop-color="#F59E0B"/>
    </linearGradient>
  </defs>
</svg>
